<svg width="36" height="36" viewBox="0 0 36 36" fill="none" xmlns="http://www.w3.org/2000/svg">
<path fill-rule="evenodd" clip-rule="evenodd" d="M1.125 11.25C1.125 5.65813 5.65813 1.125 11.25 1.125H24.75C30.3419 1.125 34.875 5.65813 34.875 11.25V24.75C34.875 30.3419 30.3419 34.875 24.75 34.875H11.25C5.65813 34.875 1.125 30.3419 1.125 24.75V11.25ZM11.25 3.375C6.90075 3.375 3.375 6.90075 3.375 11.25V24.75C3.375 29.0993 6.90075 32.625 11.25 32.625H24.75C29.0993 32.625 32.625 29.0993 32.625 24.75V11.25C32.625 6.90075 29.0993 3.375 24.75 3.375H11.25Z" fill="#E2C070"/>
<path fill-rule="evenodd" clip-rule="evenodd" d="M8.4375 11.25C8.4375 10.6287 8.94116 10.125 9.5625 10.125H26.4375C27.0588 10.125 27.5625 10.6287 27.5625 11.25C27.5625 11.8713 27.0588 12.375 26.4375 12.375H9.5625C8.94116 12.375 8.4375 11.8713 8.4375 11.25ZM8.4375 18C8.4375 17.3787 8.94116 16.875 9.5625 16.875H18.5625C19.1838 16.875 19.6875 17.3787 19.6875 18C19.6875 18.6213 19.1838 19.125 18.5625 19.125H9.5625C8.94116 19.125 8.4375 18.6213 8.4375 18ZM8.4375 24.75C8.4375 24.1287 8.94116 23.625 9.5625 23.625H25.875C26.4963 23.625 27 24.1287 27 24.75C27 25.3713 26.4963 25.875 25.875 25.875H9.5625C8.94116 25.875 8.4375 25.3713 8.4375 24.75Z" fill="#E2C070"/>
</svg>
