<svg width="34" height="34" viewBox="0 0 34 34" fill="none" xmlns="http://www.w3.org/2000/svg">
<path fill-rule="evenodd" clip-rule="evenodd" d="M5.1875 24.9081C5.1875 21.4725 7.97255 18.6875 11.4081 18.6875H22.5919C26.0275 18.6875 28.8125 21.4725 28.8125 24.9081C28.8125 27.0644 27.0644 28.8125 24.9081 28.8125H9.09193C6.93558 28.8125 5.1875 27.0644 5.1875 24.9081ZM11.4081 20.9375C9.21517 20.9375 7.4375 22.7152 7.4375 24.9081C7.4375 25.8218 8.1782 26.5625 9.09193 26.5625H24.9081C25.8218 26.5625 26.5625 25.8218 26.5625 24.9081C26.5625 22.7152 24.7848 20.9375 22.5919 20.9375H11.4081Z" fill="#E2C070"/>
<path fill-rule="evenodd" clip-rule="evenodd" d="M17 5.1875C13.8934 5.1875 11.375 7.70592 11.375 10.8125C11.375 13.9191 13.8934 16.4375 17 16.4375C20.1066 16.4375 22.625 13.9191 22.625 10.8125C22.625 7.70592 20.1066 5.1875 17 5.1875ZM13.625 10.8125C13.625 8.94854 15.136 7.4375 17 7.4375C18.864 7.4375 20.375 8.94854 20.375 10.8125C20.375 12.6765 18.864 14.1875 17 14.1875C15.136 14.1875 13.625 12.6765 13.625 10.8125Z" fill="#E2C070"/>
<path fill-rule="evenodd" clip-rule="evenodd" d="M0.125 9.125C0.125 4.15443 4.15443 0.125 9.125 0.125H24.875C29.8456 0.125 33.875 4.15443 33.875 9.125V24.875C33.875 29.8456 29.8456 33.875 24.875 33.875H9.125C4.15443 33.875 0.125 29.8456 0.125 24.875V9.125ZM9.125 2.375C5.39709 2.375 2.375 5.39709 2.375 9.125V24.875C2.375 28.6029 5.39709 31.625 9.125 31.625H24.875C28.6029 31.625 31.625 28.6029 31.625 24.875V9.125C31.625 5.39709 28.6029 2.375 24.875 2.375H9.125Z" fill="#E2C070"/>
</svg>
